<?xml version="1.0" encoding="UTF-8"?>
<svg version="1.1" xmlns="http://www.w3.org/2000/svg" width="670" height="670">
<path d="M0 0 C221.1 0 442.2 0 670 0 C670 221.1 670 442.2 670 670 C448.9 670 227.8 670 0 670 C0 448.9 0 227.8 0 0 Z " fill="#22252C" transform="translate(0,0)"/>
<path d="M0 0 C221.1 0 442.2 0 670 0 C670 221.1 670 442.2 670 670 C571.66 670 473.32 670 372 670 C372 669.67 372 669.34 372 669 C372.68175293 668.91024902 373.36350586 668.82049805 374.06591797 668.72802734 C425.26569353 661.8677871 473.7286481 645.65398461 517 617 C517.66338379 616.56187988 518.32676758 616.12375977 519.01025391 615.67236328 C531.83839112 607.14789881 544.03235571 597.99555255 555.3046875 587.484375 C557.4482536 585.50856625 559.6187407 583.59241418 561.82421875 581.6875 C572.49709741 572.37818311 582.29281415 562.16145547 591 551 C591.87825418 549.94259945 592.75997115 548.88806856 593.64453125 547.8359375 C606.44100929 532.47842017 617.49891407 515.58179432 626.92724609 497.96582031 C628.09963033 495.81742754 629.320497 493.70167791 630.55078125 491.5859375 C635.75326357 482.58119701 639.9161897 473.71271927 643.31884766 463.89404297 C644.41605176 460.84310768 645.68908444 457.86660998 646.9375 454.875 C650.55264446 445.93227424 653.35967919 436.74188509 656.19873047 427.52905273 C656.95873965 425.13023035 657.78005368 422.76087826 658.61328125 420.38671875 C660.07445201 416.03736621 660.85069806 411.72058944 661.5 407.1875 C662.2473661 402.05281812 663.20261934 397.08175819 664.51953125 392.05859375 C665.89763168 386.65570712 666.75494389 381.42995733 667.1875 375.875 C667.30593262 374.36643433 667.30593262 374.36643433 667.42675781 372.82739258 C668.23741171 360.46316595 668.21874749 348.07326835 668.25 335.6875 C668.25526703 334.62021667 668.26053406 333.55293335 668.26596069 332.45330811 C668.33316088 314.80217159 667.42940766 297.40202205 664.3125 280 C664.14951416 279.07558105 663.98652832 278.15116211 663.81860352 277.19873047 C659.52403038 253.90841219 652.52936849 232.00982159 644 210 C643.58878906 208.92492187 643.17757812 207.84984375 642.75390625 206.7421875 C631.11517904 177.49615501 613.94620278 150.25170745 594 126 C593.33895264 125.18450684 593.33895264 125.18450684 592.66455078 124.35253906 C581.37451155 110.47409171 568.63729115 97.57490451 555 86 C554.10812988 85.23997681 554.10812988 85.23997681 553.19824219 84.46459961 C536.3213561 70.2157388 518.19637934 57.90289209 499 47 C498.24992676 46.57267578 497.49985352 46.14535156 496.72705078 45.70507812 C453.51003226 21.3676225 400.71425014 4.88270817 350.7578125 4.83203125 C349.01333328 4.82703865 349.01333328 4.82703865 347.23361206 4.82194519 C344.77781568 4.81690116 342.32201249 4.81453608 339.86621094 4.81469727 C336.17110387 4.81252708 332.47630374 4.79438896 328.78125 4.77539062 C315.39148979 4.74263711 302.2637776 5.10409974 289 7 C287.79085938 7.17168701 286.58171875 7.34337402 285.3359375 7.52026367 C282.02603513 8.0287669 278.73251374 8.59042692 275.4375 9.1875 C274.26058594 9.40035645 273.08367187 9.61321289 271.87109375 9.83251953 C252.44743557 13.48223735 233.43932303 18.8939437 215 26 C214.0807373 26.35400879 213.16147461 26.70801758 212.21435547 27.07275391 C189.24126001 36.04040653 167.45971589 47.2215612 147 61 C146.25782227 61.49886719 145.51564453 61.99773438 144.75097656 62.51171875 C135.65015552 68.67666326 127.07559463 75.2141 118.81103516 82.45996094 C116.50768768 84.41864466 114.14084741 86.29308047 111.78125 88.18359375 C105.9694811 92.92565455 100.65204536 98.05097797 95.375 103.375 C94.4984375 104.24382812 93.621875 105.11265625 92.71875 106.0078125 C86.71688529 112.02748689 81.30114271 118.36135852 76 125 C75.06525513 126.12037857 74.12616912 127.23717498 73.1796875 128.34765625 C68.08089311 134.3538632 63.38779331 140.4605907 59 147 C57.89591797 148.59328125 57.89591797 148.59328125 56.76953125 150.21875 C25.70387008 195.3874546 5.93393058 248.38219486 1 303 C0.67 303 0.34 303 0 303 C0 203.01 0 103.02 0 0 Z " fill="#FAFCFE" transform="translate(0,0)"/>
<path d="M0 0 C17.49 0 34.98 0 53 0 C60.45653029 19.54440796 67.75006992 39.1360389 74.89263916 58.79675293 C77.08473606 64.83027173 79.27971263 70.86274156 81.4765625 76.89453125 C81.71209146 77.54144361 81.94762043 78.18835598 82.19028664 78.85487175 C85.74402188 88.61144331 89.35116049 98.34697597 93.02200317 108.06013489 C103 134.48851747 103 134.48851747 103 139 C103.66 139 104.32 139 105 139 C105.16435547 138.1646875 105.16435547 138.1646875 105.33203125 137.3125 C105.49058594 136.549375 105.64914063 135.78625 105.8125 135 C106.03873047 133.88625 106.03873047 133.88625 106.26953125 132.75 C107.03994959 129.84960156 108.08584453 127.10596596 109.14744568 124.30200195 C110.65869192 120.22145048 112.02826625 116.09323317 113.4140625 111.96875 C114.09103144 109.96388245 114.76820538 107.95908412 115.44555664 105.9543457 C115.80038116 104.90316559 116.15520569 103.85198547 116.52078247 102.76895142 C123.54684349 81.96883593 130.74351783 61.23526123 138.11376953 40.5546875 C138.60864868 39.16592911 138.60864868 39.16592911 139.11352539 37.74911499 C139.76227867 35.92913351 140.41151863 34.10932544 141.0612793 32.28970337 C142.81127406 27.37896641 144.53718328 22.46078975 146.23779297 17.53271484 C146.6050499 16.46925339 146.97230682 15.40579193 147.35069275 14.31010437 C148.06034995 12.25096955 148.76744544 10.19094969 149.47169495 8.12995911 C149.78839645 7.2107518 150.10509796 6.29154449 150.43139648 5.34448242 C150.71079575 4.52815842 150.99019501 3.71183441 151.27806091 2.87077332 C152 1 152 1 153 0 C170.82 0 188.64 0 207 0 C207 90.09 207 180.18 207 273 C192.81 273 178.62 273 164 273 C163.67 210.63 163.34 148.26 163 84 C160.36 91.26 157.72 98.52 155 106 C154.01 108.59875 153.02 111.1975 152 113.875 C149.08494008 121.57965428 146.50484718 129.38595669 143.97851562 137.22607422 C142.42597768 141.98331189 140.77637525 146.63181364 138.80078125 151.23046875 C134.50408096 161.3319446 130.9601803 171.73544259 127.25 182.0625 C126.46250296 184.24683976 125.67474468 186.43108536 124.88671875 188.61523438 C123.45451188 192.58806915 122.02288485 196.56110823 120.59472656 200.53540039 C120.16767426 201.72354088 120.16767426 201.72354088 119.73199463 202.9356842 C119.13573921 204.61719857 118.56418181 206.30745458 118 208 C109.09 208 100.18 208 91 208 C86.49968513 197.87429154 86.49968513 197.87429154 85.03979492 194.02319336 C84.70757431 193.15049301 84.3753537 192.27779266 84.0330658 191.37864685 C83.68570877 190.45834183 83.33835175 189.5380368 82.98046875 188.58984375 C82.6048732 187.60069473 82.22927765 186.61154572 81.84230042 185.59242249 C80.62148136 182.37507599 79.4044188 179.15632351 78.1875 175.9375 C77.33836884 173.69720774 76.48908332 171.45697399 75.63964844 169.21679688 C69.71546444 153.58242284 63.82777437 137.93431349 57.98510742 122.26928711 C57.70354294 121.51562363 57.42197845 120.76196014 57.13188171 119.98545837 C56.58239726 118.51439281 56.03395746 117.04293655 55.48664856 115.57106018 C54.04912994 111.72398346 52.56649674 107.90061557 51.02539062 104.09375 C50.70016418 103.28325195 50.37493774 102.47275391 50.03985596 101.63769531 C49.41717973 100.09177325 48.7861483 98.5491795 48.14520264 97.01074219 C46.46941425 92.83707148 45.64511626 89.58286416 46 85 C45.34 85 44.68 85 44 85 C44 147.04 44 209.08 44 273 C29.81 273 15.62 273 1 273 C0.67 182.91 0.34 92.82 0 0 Z " fill="#FCFDFD" transform="translate(127,203)"/>
<path d="M0 0 C15.84 0 31.68 0 48 0 C61.37989086 29.6269012 61.37989086 29.6269012 65.58422852 40.50317383 C66.97108014 43.92857059 68.48790237 47.24866668 70.07421875 50.5859375 C74.26497585 59.47874817 78.23923205 68.4651407 82.20629883 77.45947266 C83.43006896 80.23315748 84.6572508 83.00531448 85.88476562 85.77734375 C90.03015352 95.15575174 94.13182815 104.54709885 98.02696228 114.03277588 C101.11833809 121.48483126 104.57451759 128.65968054 108 136 C113.28 148.54 118.56 161.08 124 174 C124.33 116.58 124.66 59.16 125 0 C139.52 0 154.04 0 169 0 C168.505 135.135 168.505 135.135 168 273 C152.49 273 136.98 273 121 273 C114.56363636 259.05454545 114.56363636 259.05454545 112 253 C110.17478265 248.8297623 108.33660072 244.66523506 106.5 240.5 C103.63897783 234.01147491 100.78415005 227.52189277 98 221 C97.35790113 219.54001854 96.71259595 218.08143814 96.0625 216.625 C95.55203125 215.47644531 95.55203125 215.47644531 95.03125 214.3046875 C94.37052087 212.82805802 93.70434335 211.35384716 93.03125 209.8828125 C91.07639581 205.57898029 89.33162121 201.24517974 87.6875 196.8125 C85.40808707 190.79484986 82.63058368 185.14471325 79.69921875 179.421875 C77.63544927 175.26587025 75.85835902 171.03170006 74.11328125 166.734375 C71.35645509 159.96322303 68.24902981 153.33933372 65.21875 146.6875 C63.80631375 143.57289698 62.41941709 140.44750905 61.03515625 137.3203125 C59.85058578 134.66508661 58.64469288 132.02001366 57.4375 129.375 C55.5681608 125.27268116 53.77587307 121.14370384 52 117 C50.73555333 114.21256166 49.46246541 111.42928616 48.18359375 108.6484375 C47.05686182 106.12723537 46.02560226 103.56400566 45 101 C44.67 157.76 44.34 214.52 44 273 C29.48 273 14.96 273 0 273 C0 182.91 0 92.82 0 0 Z " fill="#FCFCFD" transform="translate(374,203)"/>
<path d="M0 0 C0.33 0 0.66 0 1 0 C1.13535156 1.15628906 1.27070313 2.31257813 1.41015625 3.50390625 C6.12416469 41.12732108 16.91402611 78.12263798 34 112 C34.40927734 112.82661133 34.81855469 113.65322266 35.24023438 114.50488281 C44.6744893 133.48733294 55.83647993 151.38609297 69 168 C69.78890625 169.00305176 69.78890625 169.00305176 70.59375 170.02636719 C83.86387228 186.8452902 98.40331432 203.36598092 115 217 C115.50160645 217.41540039 116.00321289 217.83080078 116.52001953 218.25878906 C126.32612268 226.35226909 136.46384491 233.88425086 147 241 C147.71575195 241.48436523 148.43150391 241.96873047 149.16894531 242.46777344 C193.24441479 271.98946373 246.14820288 291.60145075 299 297 C299 297.33 299 297.66 299 298 C200.33 298 101.66 298 0 298 C0 199.66 0 101.32 0 0 Z " fill="#FBFDFE" transform="translate(0,372)"/>
<path d="M0 0 C2.91589609 4.37384413 4.30254716 7.70542471 4 13 C3.67 11.68 3.34 10.36 3 9 C2.34 9 1.68 9 1 9 C1.33 9.66 1.66 10.32 2 11 C2.09395006 12.9765375 2.12190624 14.95632071 2.12025452 16.93508911 C2.12162918 18.19996155 2.12300385 19.46483398 2.12442017 20.76803589 C2.12088078 22.1775515 2.11724597 23.58706688 2.11352539 24.99658203 C2.11324344 26.47469074 2.1134014 27.95279958 2.1139679 29.4309082 C2.11425558 33.4513349 2.10836351 37.47173195 2.10139394 41.49215174 C2.0951556 45.69088244 2.09455622 49.88961377 2.09336853 54.08834839 C2.09025664 62.04271462 2.08204515 69.99706715 2.07201904 77.95142734 C2.06085351 87.00571312 2.05534634 96.05999953 2.05032361 105.11429048 C2.03986243 123.74286809 2.02226572 142.37143295 2 161 C1.34 161.33 0.68 161.66 0 162 C0 108.54 0 55.08 0 0 Z " fill="#1B1C20" transform="translate(172,291)"/>
<path d="M0 0 C1.25039063 0.00322266 2.50078125 0.00644531 3.7890625 0.00976562 C5.74199219 0.02233398 5.74199219 0.02233398 7.734375 0.03515625 C9.71050781 0.04192383 9.71050781 0.04192383 11.7265625 0.04882812 C14.97921241 0.06061309 18.23177084 0.07706614 21.484375 0.09765625 C22.144375 1.41765625 22.804375 2.73765625 23.484375 4.09765625 C12.594375 4.09765625 1.704375 4.09765625 -9.515625 4.09765625 C-9.845625 3.10765625 -10.175625 2.11765625 -10.515625 1.09765625 C-6.97374222 -0.00063144 -3.6946488 -0.01679386 0 0 Z " fill="#DFE3E6" transform="translate(328.515625,-0.09765625)"/>
<path d="M0 0 C0.33 0 0.66 0 1 0 C1.04638784 8.12781163 1.0819019 16.25556773 1.10362434 24.38347912 C1.11405124 28.1578 1.12819037 31.93203016 1.15087891 35.70629883 C1.17264644 39.35025738 1.18457686 42.99412879 1.18975449 46.63814735 C1.19344323 48.02678104 1.20064646 49.41541009 1.21146011 50.80400658 C1.22602615 52.75234684 1.22681736 54.70077522 1.22705078 56.64916992 C1.231492 57.7572551 1.23593323 58.86534027 1.24050903 60.00700378 C0.99558964 63.05488441 0.29105494 65.24573215 -1 68 C-1.33 68 -1.66 68 -2 68 C-1.93433838 67.00371582 -1.86867676 66.00743164 -1.80102539 64.98095703 C-0.94602782 51.28612287 -0.67848143 37.59225302 -0.4375 23.875 C-0.39418225 21.54817144 -0.3505644 19.22134845 -0.30664062 16.89453125 C-0.20097571 11.26308017 -0.0989836 5.63157228 0 0 Z " fill="#A0A3A8" transform="translate(669,311)"/>
<path d="M0 0 C0.66 0 1.32 0 2 0 C2 4.29 2 8.58 2 13 C1.34 12.01 0.68 11.02 0 10 C-0.268125 10.639375 -0.53625 11.27875 -0.8125 11.9375 C-2 14 -2 14 -5 15 C-1.92482916 4.44191344 -1.92482916 4.44191344 0 0 Z " fill="#262626" transform="translate(288,290)"/>
<path d="M0 0 C0.66 0 1.32 0 2 0 C1.34 6.27 0.68 12.54 0 19 C-0.33 19 -0.66 19 -1 19 C-1.02683987 16.02077407 -1.04676037 13.04178705 -1.0625 10.0625 C-1.07087891 9.21236328 -1.07925781 8.36222656 -1.08789062 7.48632812 C-1.09111328 6.67744141 -1.09433594 5.86855469 -1.09765625 5.03515625 C-1.10289307 4.2862915 -1.10812988 3.53742676 -1.11352539 2.76586914 C-1 1 -1 1 0 0 Z " fill="#DDDEE3" transform="translate(1,284)"/>
<path d="M0 0 C2.82345231 2.82345231 2.67277783 5.07333391 3 9 C2.5625 12.4375 2.5625 12.4375 2 15 C-0.02558881 11.65060119 -0.21738987 9.13037449 -0.125 5.25 C-0.09792969 3.77273438 -0.09792969 3.77273438 -0.0703125 2.265625 C-0.04710937 1.51796875 -0.02390625 0.7703125 0 0 Z " fill="#202020" transform="translate(418,302)"/>
<path d="M0 0 C2.67576692 1.00617682 3.7785108 1.54214546 5.046875 4.1640625 C5.27890625 4.97617188 5.5109375 5.78828125 5.75 6.625 C5.99234375 7.44226563 6.2346875 8.25953125 6.484375 9.1015625 C6.73960937 10.04128906 6.73960937 10.04128906 7 11 C6.01 11.495 6.01 11.495 5 12 C4.16180842 10.37750059 3.3295884 8.75191503 2.5 7.125 C2.0359375 6.22007812 1.571875 5.31515625 1.09375 4.3828125 C0 2 0 2 0 0 Z " fill="#3C3E40" transform="translate(440,245)"/>
<path d="M0 0 C0 3 0 3 -1.4375 4.5 C-1.953125 4.995 -2.46875 5.49 -3 6 C-3.33 6.99 -3.66 7.98 -4 9 C-4.99 9.66 -5.98 10.32 -7 11 C-7.99 10.67 -8.98 10.34 -10 10 C-6.7 6.7 -3.4 3.4 0 0 Z " fill="#333539" transform="translate(104,94)"/>
<path d="M0 0 C0.33 0 0.66 0 1 0 C1.3669579 6.48292295 1.3669579 6.48292295 -0.375 8.9375 C-2 10 -2 10 -4 10 C-2.8905928 6.51329166 -1.73662334 3.22515763 0 0 Z " fill="#36373B" transform="translate(34,187)"/>
<path d="M0 0 C-5.62870885 2.93161919 -8.77166905 3.2019586 -15 2 C-15 1.67 -15 1.34 -15 1 C-13.25215171 0.63536268 -11.50159498 0.2836922 -9.75 -0.0625 C-8.28820312 -0.35833984 -8.28820312 -0.35833984 -6.796875 -0.66015625 C-4.131881 -0.98397535 -2.51128277 -0.85503199 0 0 Z " fill="#CBCFD1" transform="translate(408,665)"/>
<path d="M0 0 C0.66 0.33 1.32 0.66 2 1 C0.56839732 2.00842453 -0.87051453 3.00647891 -2.3125 4 C-3.51326172 4.8353125 -3.51326172 4.8353125 -4.73828125 5.6875 C-7 7 -7 7 -10 7 C-9.67 5.68 -9.34 4.36 -9 3 C-7.88625 2.814375 -7.88625 2.814375 -6.75 2.625 C-4.01820689 2.12410486 -4.01820689 2.12410486 -1.8125 0.875 C-1.214375 0.58625 -0.61625 0.2975 0 0 Z " fill="#191D21" transform="translate(508,621)"/>
<path d="M0 0 C0.66 0.99 1.32 1.98 2 3 C1.3125 6.125 1.3125 6.125 0 9 C-0.99 9.33 -1.98 9.66 -3 10 C-2.01 6.7 -1.02 3.4 0 0 Z " fill="#474748" transform="translate(286,295)"/>
<path d="M0 0 C3.08236365 2.78407039 3.95206337 3.80825346 5 8 C2.69 6.02 0.38 4.04 -2 2 C-1.34 1.34 -0.68 0.68 0 0 Z " fill="#2D3136" transform="translate(80,551)"/>
<path d="M0 0 C0.33 1.32 0.66 2.64 1 4 C-1.4375 6.75 -1.4375 6.75 -4 9 C-4.66 8.67 -5.32 8.34 -6 8 C-4.02 5.36 -2.04 2.72 0 0 Z " fill="#D0D4D7" transform="translate(608,529)"/>
<path d="M0 0 C0.95465783 2.16967689 1.14401212 3.56328793 0.3984375 5.82421875 C-0.35870385 7.5684743 -1.17609198 9.28627131 -2 11 C-2.66 11 -3.32 11 -4 11 C-3.52269162 9.5410574 -3.04308958 8.08286504 -2.5625 6.625 C-2.29566406 5.81289063 -2.02882813 5.00078125 -1.75390625 4.1640625 C-1 2 -1 2 0 0 Z " fill="#BBBFC1" transform="translate(643,465)"/>
<path d="M0 0 C-1.36983503 3.16115776 -1.9890638 3.9927092 -5 6 C-5.66 5.34 -6.32 4.68 -7 4 C-2.25 0 -2.25 0 0 0 Z " fill="#DBDFE1" transform="translate(523,614)"/>
<path d="M0 0 C2 3 2 3 2 5 C-0.64738916 6.4606285 -1.89448334 7 -5 7 C-3.35 4.69 -1.7 2.38 0 0 Z " fill="#D2D6D9" transform="translate(601,538)"/>
<path d="M0 0 C0.66 1.32 1.32 2.64 2 4 C0.67172689 6.85578718 -0.14643942 8.57321971 -3 10 C-2.01 6.7 -1.02 3.4 0 0 Z " fill="#48494B" transform="translate(277,320)"/>
<path d="M0 0 C0.66 0 1.32 0 2 0 C3.1577506 3.47325181 3.06866652 6.36067448 3 10 C0.70366176 6.55549263 0.45983515 4.06187717 0 0 Z " fill="#393C3F" transform="translate(212,288)"/>
<path d="M0 0 C1.08711385 4.3484554 0.94219172 6.11561657 -1 10 C-1.66 10 -2.32 10 -3 10 C-2.01 6.7 -1.02 3.4 0 0 Z " fill="#C6CACB" transform="translate(650,447)"/>
<path d="M0 0 C2.52259061 1.97420135 2.9929808 2.96745642 3.6875 6.1875 C3.790625 7.115625 3.89375 8.04375 4 9 C3.01 8.67 2.02 8.34 1 8 C0.67 5.36 0.34 2.72 0 0 Z " fill="#1C1D22" transform="translate(451,378)"/>
<path d="M0 0 C0.33 0.99 0.66 1.98 1 3 C1.99 2.67 2.98 2.34 4 2 C3.34 3.98 2.68 5.96 2 8 C0.26216175 5.39324263 -0.50215905 3.98704569 -1 1 C-0.67 0.67 -0.34 0.34 0 0 Z " fill="#2C2C31" transform="translate(488,350)"/>
<path d="M0 0 C0.99 0.33 1.98 0.66 3 1 C2.690625 1.598125 2.38125 2.19625 2.0625 2.8125 C0.89790296 5.08956772 0.89790296 5.08956772 0 8 C-0.66 8 -1.32 8 -2 8 C-1.125 2.25 -1.125 2.25 0 0 Z " fill="#424346" transform="translate(272,334)"/>
<path d="M0 0 C2 4 2 4 2 8 C1.34 8.99 0.68 9.98 0 11 C0 7.37 0 3.74 0 0 Z " fill="#37393F" transform="translate(4,273)"/>
</svg>
